<svg xmlns="http://www.w3.org/2000/svg" viewBox="0 0 64 64" role="img" aria-label="TypeRush favicon">
  <defs>
    <linearGradient id="bg" x1="0" y1="0" x2="1" y2="1">
      <stop offset="0" stop-color="#1c2a39"/>
      <stop offset="0.52" stop-color="#165d53"/>
      <stop offset="1" stop-color="#d55d3f"/>
    </linearGradient>
    <linearGradient id="key" x1="0" y1="0" x2="1" y2="1">
      <stop offset="0" stop-color="#fffaf1"/>
      <stop offset="1" stop-color="#efe3cc"/>
    </linearGradient>
  </defs>
  <rect width="64" height="64" rx="16" fill="url(#bg)"/>
  <path d="M14 23c0-3.31 2.69-6 6-6h24.5c1.59 0 3.12.63 4.24 1.76l4.5 4.5A5.98 5.98 0 0 1 55 27.5V41c0 3.31-2.69 6-6 6H20c-3.31 0-6-2.69-6-6V23Z" fill="url(#key)"/>
  <path d="M48.75 18.65v8.1a3.25 3.25 0 0 0 3.25 3.25h2.98" fill="none" stroke="#d8c6a7" stroke-width="2"/>
  <rect x="20" y="26" width="8" height="5" rx="2" fill="#1c2a39"/>
  <rect x="30" y="26" width="8" height="5" rx="2" fill="#1c2a39"/>
  <rect x="40" y="26" width="8" height="5" rx="2" fill="#1c2a39"/>
  <rect x="20" y="34" width="12" height="5" rx="2" fill="#165d53"/>
  <rect x="34" y="34" width="14" height="5" rx="2" fill="#d55d3f"/>
  <path d="M10 20h8M8 27h11M11 34h7" fill="none" stroke="#fff4de" stroke-linecap="round" stroke-width="3" opacity=".9"/>
</svg>
